<svg width="24" height="20" fill="none" xmlns="http://www.w3.org/2000/svg"><g clip-path="url(#clip0_4091_4672)"><path fill-rule="evenodd" clip-rule="evenodd" d="M4.985 0c-1.37 0-2.383 1.196-2.337 2.494.043 1.247-.013 2.861-.42 4.178-.41 1.32-1.1 2.157-2.228 2.264v1.212c1.128.108 1.819.944 2.227 2.265.408 1.316.464 2.93.42 4.177-.045 1.298.968 2.494 2.338 2.494h14.032c1.37 0 2.383-1.196 2.337-2.494-.043-1.246.013-2.86.42-4.177.409-1.32 1.098-2.157 2.226-2.265V8.936c-1.128-.107-1.817-.944-2.226-2.264-.407-1.317-.463-2.931-.42-4.178C21.4 1.197 20.386 0 19.017 0H4.985zM16.27 11.748c0 1.786-1.335 2.87-3.55 2.87H8.949a.407.407 0 01-.407-.406v-9.34a.406.406 0 01.407-.405h3.75c1.847 0 3.06.998 3.06 2.532 0 1.077-.816 2.04-1.855 2.209v.056c1.415.155 2.367 1.133 2.367 2.484zm-3.96-5.994h-2.15v3.032h1.811c1.4 0 2.172-.563 2.172-1.57 0-.942-.664-1.462-1.833-1.462zm-2.15 4.235v3.341h2.23c1.457 0 2.23-.584 2.23-1.681 0-1.098-.794-1.66-2.324-1.66H10.16z" fill="#0AAD0A"/></g><defs><clipPath id="clip0_4091_4672"><path fill="#fff" d="M0 0h24v19.084H0z"/></clipPath></defs></svg>